<?xml version="1.0" encoding="utf-8"?>
<!-- Generator: Adobe Illustrator 28.2.0, SVG Export Plug-In . SVG Version: 6.00 Build 0)  -->
<svg version="1.1" id="Livello_1" xmlns="http://www.w3.org/2000/svg" xmlns:xlink="http://www.w3.org/1999/xlink" x="0px" y="0px"
	 viewBox="0 0 425.2 113.4" style="enable-background:new 0 0 425.2 113.4;" xml:space="preserve">
<style type="text/css">
	.Arco_x0020_verde{fill:url(#SVGID_1_);stroke:#FFFFFF;stroke-width:0.25;stroke-miterlimit:1;}
	.st0{fill:#980539;}
</style>
<linearGradient id="SVGID_1_" gradientUnits="userSpaceOnUse" x1="-84.4014" y1="463.0815" x2="-83.6943" y2="462.3744">
	<stop  offset="0" style="stop-color:#1EAB4B"/>
	<stop  offset="0.9831" style="stop-color:#19361A"/>
</linearGradient>
<g>
	<g>
		<path class="st0" d="M41,6.4c-19.7,0-35.7,16-35.7,35.7c0,19.7,16,35.7,35.7,35.7c19.7,0,35.7-16,35.7-35.7
			C76.7,22.4,60.8,6.4,41,6.4z M40.7,73.2c-11.9-0.2-21.5-10-21.3-21.9c0.1-6.8,3.3-12.8,8.2-16.6l0,0c7.1-5.6,12-13.7,13.4-23.1
			l0,0c0.1-0.3,0.3-0.5,0.7-0.5c0.3,0,0.6,0.2,0.6,0.5v0l0,0c0,0,0,0,0,0c1.1,9.4,5.8,17.7,12.6,23.5l0,0c4.8,4,7.8,10.1,7.7,16.9
			C62.5,63.8,52.6,73.4,40.7,73.2z"/>
		<path class="st0" d="M42.3,11.5L42.3,11.5C42.3,11.5,42.3,11.5,42.3,11.5L42.3,11.5z"/>
	</g>
	<g>
		<g>
			<path class="st0" d="M127.5,32.9c-3-4-7.8-6.1-12.7-6.1c-8.9,0-14.9,6.8-14.9,15.5c0,8.8,6.1,15.2,15.1,15.2
				c4.7,0,9.5-2.3,12.5-5.9v17.4c-4.8,1.5-8.3,2.6-12.8,2.6c-7.8,0-15.2-3-20.9-8.2c-6.1-5.5-9-12.8-9-21.1c0-7.6,2.9-14.9,8.2-20.4
				c5.5-5.6,13.4-9,21.2-9c4.7,0,9,1,13.2,2.8V32.9z"/>
			<path class="st0" d="M146.4,8.7V37h0.2c3.1-4.1,6.9-6.1,12.1-6.1c9.6,0,14.3,6.4,14.3,16v23.2h-13.5V50.7c0-4.4-0.7-9-6.1-9
				c-5.3,0-7,4.6-7,9v19.5h-13.5V8.7H146.4z"/>
			<path class="st0" d="M219.1,53.3h-28.3c0,5.5,2.9,8.4,8.4,8.4c2.9,0,5-1,6.4-3.5h12.9c-2.1,8.9-10.7,13-19.3,13
				c-12.6,0-22-7.1-22-20.2c0-12.7,8.7-20.3,21-20.3c13.2,0,20.8,8.1,20.8,21.1V53.3z M206.6,45.5c-0.7-3.6-4-6-7.6-6
				c-3.9,0-7.2,2.1-8,6H206.6z"/>
			<path class="st0" d="M236.9,36.8h0.1c3.2-4.2,7.1-6,12-6c5.5,0,10.2,2.2,12.9,7.2c2.6-4.7,7.7-7.2,12.9-7.2c9.6,0,13,6.3,13,15
				V70h-13.5V51.8c0-3.9,0.1-10.4-5.5-10.4c-6.2,0-6.4,5.8-6.4,10.4V70h-13.5V51.8c0-4.2,0-10.7-6-10.7s-6,6.4-6,10.7V70h-13.5V32
				h13.5V36.8z"/>
			<path class="st0" d="M307.1,17.4c0,4.1-3.4,7.6-7.5,7.6c-4.1,0-7.6-3.4-7.6-7.6c0-4.1,3.4-7.6,7.6-7.6
				C303.7,9.9,307.1,13.3,307.1,17.4 M306.3,70h-13.5V32h13.5V70z"/>
			<polygon class="st0" points="328.8,70 315.3,70 315.3,43.1 311,43.1 311,32 315.3,32 315.3,20.6 328.8,20.6 328.8,32 336.4,32 
				336.4,43.1 328.8,43.1 			"/>
			<path class="st0" d="M379.1,53.3h-28.3c0,5.5,2.9,8.4,8.4,8.4c2.9,0,5-1,6.4-3.5h12.9c-2.1,9-10.7,13-19.3,13
				c-12.6,0-22-7.1-22-20.2c0-12.7,8.7-20.3,21-20.3c13.2,0,20.8,8.1,20.8,21.1V53.3z M366.5,45.5c-0.7-3.6-4-6-7.6-6
				c-3.9,0-7.2,2.1-8,6L366.5,45.5z"/>
			<path class="st0" d="M411.9,44.4c-2-1.5-4.4-2.7-7-2.7c-5.2,0-9.2,4-9.2,9.2c0,5.5,3.9,9.3,9.5,9.3c2.4,0,5-1,6.7-2.6v11.4
				c-3,1.5-6.2,2.1-9.5,2.1c-11.2,0-20.6-8.4-20.6-19.8c0-12.2,9.3-20.6,21.2-20.6c3.1,0,6.2,0.7,8.9,2.2V44.4z"/>
		</g>
	</g>
</g>
<g>
	<path class="st0" d="M88.1,84.9l2.8,6.8l3-6.8h1.9l3,6.8l2.8-6.8h2.2l-4.7,11.1h-0.7l-3.6-8.1l-3.6,8.1h-0.7l-4.7-11.1H88.1z"/>
	<path class="st0" d="M111.6,84.9l5,11h-2.3l-1.2-2.7H108l-1.1,2.7h-2.3l4.7-11H111.6z M108.7,91.6h3.7l-1.9-4.3L108.7,91.6z"/>
	<path class="st0" d="M128,84.9v1.7h-4v9.3h-2.2v-9.3h-4v-1.7H128z"/>
	<path class="st0" d="M139,84.9v1.7h-5.1v2.9h4.9v1.7h-4.9v3.1h5.3v1.7h-7.5v-11H139z"/>
	<path class="st0" d="M147.3,84.9c1.1,0,1.9,0.3,2.6,0.9s1,1.3,1,2.2c0,0.6-0.2,1.2-0.5,1.6s-0.8,0.8-1.5,1.1c0.4,0.2,0.7,0.4,1,0.8
		c0.3,0.3,0.6,0.9,1,1.6c0.7,1.3,1.2,2.2,1.5,2.8H150c-0.2-0.2-0.4-0.6-0.7-1.2c-0.6-1.2-1.1-2-1.4-2.4c-0.3-0.4-0.6-0.7-0.8-0.9
		c-0.3-0.2-0.6-0.3-0.9-0.3h-0.8v4.6h-2.2v-11H147.3z M146.8,89.6c0.6,0,1-0.1,1.4-0.4c0.3-0.3,0.5-0.7,0.5-1.1
		c0-0.5-0.2-0.9-0.5-1.1c-0.3-0.2-0.8-0.4-1.4-0.4h-1.4v3.1H146.8z"/>
	<path class="st0" d="M164.5,84.9l3.7,4.3l3.7-4.3h2v11h-2.2v-7.7h-0.1l-3.3,3.9h-0.3l-3.3-3.9h-0.1v7.7h-2.2v-11H164.5z"/>
	<path class="st0" d="M184.3,84.8c1.2,0,2.2,0.2,3.2,0.7c0.9,0.5,1.7,1.1,2.2,2c0.6,0.9,0.8,1.9,0.8,2.9c0,1-0.3,2-0.8,2.9
		s-1.3,1.6-2.2,2c-1,0.5-2,0.7-3.2,0.7c-1.2,0-2.2-0.2-3.2-0.7c-1-0.5-1.7-1.2-2.2-2c-0.5-0.9-0.8-1.8-0.8-2.9c0-1,0.3-2,0.8-2.8
		c0.5-0.9,1.3-1.6,2.2-2.1S183,84.8,184.3,84.8z M180.3,90.4c0,0.7,0.2,1.4,0.5,2c0.3,0.6,0.8,1,1.4,1.4c0.6,0.3,1.3,0.5,2.1,0.5
		c1.2,0,2.1-0.4,2.9-1.1c0.8-0.7,1.1-1.6,1.1-2.7c0-0.7-0.2-1.4-0.5-2c-0.3-0.6-0.8-1-1.4-1.4c-0.6-0.3-1.3-0.5-2.1-0.5
		c-0.8,0-1.5,0.2-2.1,0.5c-0.6,0.3-1.1,0.8-1.4,1.4S180.3,89.7,180.3,90.4z"/>
	<path class="st0" d="M196.5,84.9l6.8,7.7v-7.7h2.1v11h-1.9l-6.8-7.8v7.8h-2.1v-11H196.5z"/>
	<path class="st0" d="M212.1,84.9v11H210v-11H212.1z"/>
	<path class="st0" d="M226.1,84.9v1.7h-4v9.3h-2.2v-9.3h-4v-1.7H226.1z"/>
	<path class="st0" d="M234.9,84.8c1.2,0,2.2,0.2,3.2,0.7c0.9,0.5,1.7,1.1,2.2,2c0.6,0.9,0.8,1.9,0.8,2.9c0,1-0.3,2-0.8,2.9
		s-1.3,1.6-2.2,2c-1,0.5-2,0.7-3.2,0.7c-1.2,0-2.2-0.2-3.2-0.7c-1-0.5-1.7-1.2-2.2-2c-0.5-0.9-0.8-1.8-0.8-2.9c0-1,0.3-2,0.8-2.8
		c0.5-0.9,1.3-1.6,2.2-2.1C232.6,85,233.7,84.8,234.9,84.8z M230.9,90.4c0,0.7,0.2,1.4,0.5,2c0.3,0.6,0.8,1,1.4,1.4
		c0.6,0.3,1.3,0.5,2.1,0.5c1.2,0,2.1-0.4,2.9-1.1c0.8-0.7,1.1-1.6,1.1-2.7c0-0.7-0.2-1.4-0.5-2c-0.3-0.6-0.8-1-1.4-1.4
		s-1.3-0.5-2.1-0.5c-0.8,0-1.5,0.2-2.1,0.5s-1.1,0.8-1.4,1.4S230.9,89.7,230.9,90.4z"/>
	<path class="st0" d="M249.4,84.9c1.1,0,1.9,0.3,2.6,0.9c0.7,0.6,1,1.3,1,2.2c0,0.6-0.2,1.2-0.5,1.6c-0.3,0.5-0.8,0.8-1.5,1.1
		c0.4,0.2,0.7,0.4,1,0.8s0.6,0.9,1,1.6c0.7,1.3,1.2,2.2,1.5,2.8h-2.4c-0.2-0.2-0.4-0.6-0.7-1.2c-0.6-1.2-1.1-2-1.4-2.4
		c-0.3-0.4-0.6-0.7-0.8-0.9c-0.3-0.2-0.6-0.3-0.9-0.3h-0.8v4.6h-2.2v-11H249.4z M248.9,89.6c0.6,0,1-0.1,1.4-0.4
		c0.3-0.3,0.5-0.7,0.5-1.1c0-0.5-0.2-0.9-0.5-1.1s-0.8-0.4-1.4-0.4h-1.4v3.1H248.9z"/>
	<path class="st0" d="M260.2,84.9v11H258v-11H260.2z"/>
	<path class="st0" d="M266.7,84.9l6.8,7.7v-7.7h2.1v11h-1.9l-6.8-7.8v7.8h-2.1v-11H266.7z"/>
	<path class="st0" d="M286.1,84.8c1.4,0,2.8,0.3,4.2,0.9v1.9c-1.4-0.7-2.7-1-4.1-1c-0.8,0-1.6,0.2-2.2,0.5s-1.1,0.8-1.5,1.4
		c-0.4,0.6-0.5,1.3-0.5,2c0,1.1,0.4,2,1.2,2.7c0.8,0.7,1.8,1,3.1,1c0.3,0,0.7,0,1-0.1c0.3-0.1,0.7-0.2,1.1-0.3V92h-1.9v-1.7h4.1v4.5
		c-0.6,0.4-1.2,0.7-2,0.9c-0.8,0.2-1.6,0.3-2.4,0.3c-1.2,0-2.3-0.2-3.3-0.7c-1-0.5-1.7-1.1-2.3-2s-0.8-1.8-0.8-2.9
		c0-1.1,0.3-2,0.8-2.9c0.5-0.9,1.3-1.5,2.3-2C283.8,85,284.9,84.8,286.1,84.8z"/>
	<path class="st0" d="M304.7,84.8c1.1,0,2.2,0.3,3.2,0.8v1.9c-1.2-0.7-2.2-1-3.1-1c-0.6,0-1,0.1-1.3,0.3s-0.5,0.5-0.5,0.8
		c0,0.4,0.3,0.8,0.9,1.1c0.2,0.1,0.8,0.4,1.9,0.9c0.9,0.4,1.6,0.9,2,1.4s0.6,1.1,0.6,1.9c0,0.9-0.4,1.7-1.1,2.3s-1.6,0.9-2.7,0.9
		c-0.7,0-1.4-0.1-1.9-0.2c-0.5-0.2-1.1-0.4-1.8-0.8v-2.1c1.2,1,2.4,1.5,3.4,1.5c0.5,0,1-0.1,1.3-0.3c0.3-0.2,0.5-0.5,0.5-0.9
		c0-0.5-0.3-0.9-0.9-1.2c-0.5-0.3-1.1-0.6-1.8-0.9c-0.9-0.4-1.6-0.9-2-1.4c-0.4-0.5-0.7-1.1-0.7-1.8c0-0.9,0.4-1.7,1.1-2.2
		C302.6,85.1,303.6,84.8,304.7,84.8z"/>
	<path class="st0" d="M318.2,84.8c1.2,0,2.2,0.2,3.2,0.7c0.9,0.5,1.7,1.1,2.2,2c0.6,0.9,0.8,1.9,0.8,2.9c0,1-0.3,2-0.8,2.9
		s-1.3,1.6-2.2,2c-1,0.5-2,0.7-3.2,0.7c-1.2,0-2.2-0.2-3.2-0.7c-1-0.5-1.7-1.2-2.2-2c-0.5-0.9-0.8-1.8-0.8-2.9c0-1,0.3-2,0.8-2.8
		c0.5-0.9,1.3-1.6,2.2-2.1C315.8,85,316.9,84.8,318.2,84.8z M314.1,90.4c0,0.7,0.2,1.4,0.5,2c0.3,0.6,0.8,1,1.4,1.4
		c0.6,0.3,1.3,0.5,2.1,0.5c1.2,0,2.1-0.4,2.9-1.1c0.8-0.7,1.1-1.6,1.1-2.7c0-0.7-0.2-1.4-0.5-2c-0.3-0.6-0.8-1-1.4-1.4
		s-1.3-0.5-2.1-0.5c-0.8,0-1.5,0.2-2.1,0.5s-1.1,0.8-1.4,1.4S314.1,89.7,314.1,90.4z"/>
	<path class="st0" d="M330.7,84.9v9.3h5.5v1.7h-7.7v-11H330.7z"/>
	<path class="st0" d="M341.5,84.9v6.4c0,0.7,0.1,1.2,0.3,1.6c0.2,0.4,0.5,0.7,1,1c0.5,0.3,1,0.4,1.6,0.4c0.7,0,1.2-0.1,1.7-0.4
		s0.8-0.6,1-1c0.2-0.4,0.3-1,0.3-1.7v-6.2h2.2v6.5c0,1.5-0.5,2.6-1.4,3.4s-2.2,1.2-3.9,1.2c-1.1,0-2-0.2-2.7-0.5
		c-0.8-0.4-1.4-0.9-1.8-1.6c-0.4-0.7-0.6-1.5-0.6-2.4v-6.6H341.5z"/>
	<path class="st0" d="M363.5,84.9v1.7h-4v9.3h-2.2v-9.3h-4v-1.7H363.5z"/>
	<path class="st0" d="M369.4,84.9v11h-2.2v-11H369.4z"/>
	<path class="st0" d="M379.8,84.8c1.2,0,2.2,0.2,3.2,0.7c0.9,0.5,1.7,1.1,2.2,2c0.6,0.9,0.8,1.9,0.8,2.9c0,1-0.3,2-0.8,2.9
		s-1.3,1.6-2.2,2c-1,0.5-2,0.7-3.2,0.7c-1.2,0-2.2-0.2-3.2-0.7c-1-0.5-1.7-1.2-2.2-2c-0.5-0.9-0.8-1.8-0.8-2.9c0-1,0.3-2,0.8-2.8
		c0.5-0.9,1.3-1.6,2.2-2.1C377.5,85,378.6,84.8,379.8,84.8z M375.8,90.4c0,0.7,0.2,1.4,0.5,2c0.3,0.6,0.8,1,1.4,1.4
		c0.6,0.3,1.3,0.5,2.1,0.5c1.2,0,2.1-0.4,2.9-1.1c0.8-0.7,1.1-1.6,1.1-2.7c0-0.7-0.2-1.4-0.5-2c-0.3-0.6-0.8-1-1.4-1.4
		s-1.3-0.5-2.1-0.5c-0.8,0-1.5,0.2-2.1,0.5s-1.1,0.8-1.4,1.4S375.8,89.7,375.8,90.4z"/>
	<path class="st0" d="M392,84.9l6.8,7.7v-7.7h2.1v11H399l-6.8-7.8v7.8h-2.1v-11H392z"/>
	<path class="st0" d="M408.7,84.8c1.1,0,2.2,0.3,3.2,0.8v1.9c-1.2-0.7-2.2-1-3.1-1c-0.6,0-1,0.1-1.3,0.3s-0.5,0.5-0.5,0.8
		c0,0.4,0.3,0.8,0.9,1.1c0.2,0.1,0.8,0.4,1.9,0.9c0.9,0.4,1.6,0.9,2,1.4s0.6,1.1,0.6,1.9c0,0.9-0.4,1.7-1.1,2.3s-1.6,0.9-2.7,0.9
		c-0.7,0-1.4-0.1-1.9-0.2c-0.5-0.2-1.1-0.4-1.8-0.8v-2.1c1.2,1,2.4,1.5,3.4,1.5c0.5,0,1-0.1,1.3-0.3c0.3-0.2,0.5-0.5,0.5-0.9
		c0-0.5-0.3-0.9-0.9-1.2c-0.5-0.3-1.1-0.6-1.8-0.9c-0.9-0.4-1.6-0.9-2-1.4c-0.4-0.5-0.7-1.1-0.7-1.8c0-0.9,0.4-1.7,1.1-2.2
		C406.6,85.1,407.6,84.8,408.7,84.8z"/>
</g>
</svg>
